<?xml version="1.0" standalone="no"?>
<!DOCTYPE svg PUBLIC "-//W3C//DTD SVG 20010904//EN"
 "http://www.w3.org/TR/2001/REC-SVG-20010904/DTD/svg10.dtd">
<svg version="1.0" xmlns="http://www.w3.org/2000/svg"
 width="300.000000pt" height="300.000000pt" viewBox="0 0 300.000000 300.000000"
 preserveAspectRatio="xMidYMid meet">
<metadata>
Created by potrace 1.10, written by Peter Selinger 2001-2011
</metadata>
<g transform="translate(0.000000,300.000000) scale(0.050000,-0.050000)"
fill="#f7e308" stroke="none">
<path d="M2649 5279 c-7 -12 -25 -17 -40 -11 -73 28 -683 -189 -656 -233 7
-11 0 -16 -15 -11 -54 19 -522 -320 -512 -370 2 -12 -9 -23 -26 -23 -16 -1
-31 -14 -32 -31 -4 -61 -9 -69 -25 -44 -12 18 -53 -20 -140 -130 -133 -167
-250 -378 -230 -412 7 -11 4 -14 -7 -7 -41 24 -226 -472 -226 -604 0 -25 -8
-41 -17 -35 -22 14 -88 -57 -70 -75 8 -7 -1 -13 -20 -13 -18 0 -33 -10 -33
-22 0 -12 -13 -17 -29 -11 -37 14 -154 -81 -146 -118 3 -15 -13 -40 -35 -56
-39 -29 -39 -32 -4 -98 20 -37 35 -76 33 -86 -19 -100 132 -269 241 -269 61 0
77 -8 77 -35 -3 -109 200 -641 228 -600 11 17 15 12 11 -16 -8 -57 146 -318
167 -284 17 26 21 15 25 -55 1 -28 14 -38 42 -34 30 4 33 1 13 -13 -21 -14 -5
-42 70 -125 132 -147 251 -252 234 -208 -9 25 -5 33 15 26 15 -5 27 -28 26
-50 -2 -41 137 -155 287 -236 41 -22 79 -46 85 -52 20 -25 297 -137 471 -191
270 -84 906 -84 1179 -1 221 68 570 231 570 267 0 15 7 28 15 29 62 6 100 25
191 95 242 187 603 607 560 650 -7 7 -2 13 10 13 28 0 108 150 90 168 -7 6 -2
12 11 12 13 0 23 17 23 38 0 21 8 42 17 45 24 10 135 311 162 443 l24 114 77
0 c93 0 229 119 209 182 -6 21 3 43 25 56 20 11 29 21 21 21 -9 1 -2 34 15 74
31 74 24 147 -13 147 -10 0 -14 8 -8 18 11 18 -138 159 -173 165 -9 1 -24 3
-34 5 -31 4 -142 130 -142 161 0 78 -45 230 -65 218 -13 -8 -15 -4 -6 11 39
63 -329 776 -376 729 -7 -8 -13 -3 -13 10 0 12 -13 23 -30 23 -16 0 -30 9 -30
20 0 11 11 20 25 20 14 1 -60 82 -164 180 -145 138 -198 177 -228 168 -30 -10
-36 -5 -27 19 26 69 -472 325 -746 384 -82 17 -178 40 -211 50 -88 27 -703 24
-720 -2z m839 -238 c760 -195 1361 -787 1543 -1522 17 -71 36 -145 42 -164 8
-29 -4 -35 -72 -35 -49 0 -85 10 -89 25 -3 14 -21 88 -39 165 -268 1125 -1627
1758 -2687 1251 -542 -259 -966 -776 -1075 -1309 l-24 -122 -83 -6 -83 -6 12
66 c219 1162 1427 1945 2555 1657z m-38 -299 c586 -153 1064 -603 1259 -1186
61 -183 64 -236 15 -236 -27 0 -44 33 -72 143 -263 1021 -1452 1546 -2422
1069 -421 -207 -769 -629 -882 -1069 -28 -110 -45 -143 -72 -143 -112 0 99
528 323 809 430 540 1179 788 1851 613z m-895 -316 c15 -14 25 -74 25 -156 0
-73 9 -149 20 -170 27 -51 -29 -109 -88 -89 -109 35 -171 33 -229 -9 -50 -36
-76 -40 -181 -29 l-122 13 -112 -112 -112 -111 15 -222 c13 -200 11 -221 -20
-221 -18 0 -28 -9 -21 -20 7 -11 -1 -14 -19 -8 -17 7 -26 19 -21 28 14 23 -49
43 -93 29 -21 -7 -33 -20 -27 -29 6 -10 2 -23 -10 -30 -13 -8 -20 35 -20 119
0 74 9 131 20 131 11 0 20 11 20 25 0 14 36 87 79 161 44 74 77 146 73 160 -3
13 -2 18 3 10 4 -8 69 46 143 120 158 159 308 262 496 344 75 32 124 59 110
59 -15 1 -21 10 -14 21 15 24 50 18 85 -14z m953 22 c18 -7 27 -19 22 -28 -6
-9 32 -33 84 -52 51 -20 159 -79 238 -131 79 -51 151 -88 158 -80 7 7 10 3 7
-10 -4 -12 27 -55 68 -96 80 -78 100 -127 40 -98 -19 9 -98 17 -175 17 -94 1
-156 12 -190 34 -72 47 -161 60 -256 39 -94 -21 -111 -13 -82 40 27 51 41 337
17 337 -11 0 -19 9 -19 20 0 22 41 26 88 8z m-259 -42 c64 -30 94 -66 56 -66
-8 0 -15 -42 -15 -93 0 -78 -7 -95 -46 -109 -50 -19 -63 92 -14 127 11 8 5 15
-15 15 -27 0 -35 -17 -35 -78 0 -113 -185 -160 -360 -89 l-82 32 6 123 6 122
90 23 c136 36 327 32 409 -7z m-313 -606 c3 -49 -2 -153 -10 -230 l-16 -140
-138 -5 -138 -4 12 222 c13 254 14 255 172 250 l112 -3 6 -90z m382 72 c34
-40 -6 -132 -58 -132 -55 0 -51 -36 5 -44 46 -6 57 -104 25 -231 -17 -70 -176
-65 -223 7 -115 175 124 554 251 400z m-858 -62 c33 -86 89 -387 75 -401 -7
-8 -38 -16 -69 -19 -31 -3 -81 -12 -112 -20 -93 -25 -101 3 -75 233 14 114 34
218 45 232 37 44 115 30 136 -25z m1236 19 c57 -41 59 -145 2 -216 -36 -47
-38 -61 -17 -125 32 -98 10 -114 -140 -97 -148 17 -158 32 -116 186 18 62 42
151 54 198 25 96 122 120 217 54z m-1586 -129 c0 -49 12 -111 27 -138 45 -79
38 -182 -16 -226 -98 -79 -198 -12 -141 94 20 37 17 58 -18 126 -54 106 -53
135 8 196 82 81 140 60 140 -52z m1995 56 c46 -23 44 -67 -3 -114 -21 -21 -34
-43 -28 -49 32 -32 -18 -113 -69 -114 -53 -1 -53 -2 -10 -20 25 -10 45 -35 45
-57 0 -49 -57 -108 -91 -94 -14 5 -58 16 -96 23 -96 18 -97 32 -17 249 85 230
119 253 269 176z m313 -136 c12 0 22 -9 22 -20 0 -11 -10 -20 -22 -20 -17 0
-17 -8 0 -28 50 -60 54 -240 4 -213 -54 29 -121 10 -166 -46 -33 -42 -34 -42
-32 -3 1 22 -5 65 -13 95 -10 34 -8 55 5 55 12 0 27 20 34 45 55 189 76 222
112 178 19 -24 44 -43 56 -43z m-3667 -490 c13 -68 16 -70 106 -71 l93 0 -68
-56 c-69 -58 -72 -76 -29 -196 12 -33 8 -33 -35 5 -81 71 -95 72 -168 17 -80
-61 -80 -62 -42 46 l29 81 -69 36 c-91 50 -86 68 21 68 86 0 90 2 102 70 8 39
21 70 30 70 10 0 23 -31 30 -70z m458 0 c12 -68 15 -70 107 -71 l94 0 -48 -40
c-27 -23 -61 -47 -76 -56 -23 -13 -22 -27 4 -89 34 -83 23 -91 -50 -34 -64 50
-65 50 -138 -12 -69 -57 -73 -52 -37 47 23 66 22 71 -45 126 l-70 58 93 0 c90
1 93 3 106 71 7 39 20 70 30 70 9 0 22 -31 30 -70z m458 -10 c11 -55 19 -60
93 -60 63 0 125 -39 65 -40 -69 -2 -108 -74 -78 -145 38 -91 23 -106 -44 -44
-66 62 -78 61 -150 -6 l-58 -55 11 50 c6 28 17 69 24 93 11 34 1 50 -48 79
-83 49 -78 65 22 72 76 5 85 12 101 72 19 76 45 70 62 -16z m461 -25 c8 -26
32 -35 91 -35 97 0 102 -19 19 -68 -49 -29 -59 -45 -48 -79 7 -24 18 -65 24
-93 l11 -50 -58 55 c-73 67 -88 68 -146 6 -63 -67 -85 -46 -48 43 30 72 -9
143 -78 146 -60 1 2 40 65 40 70 0 81 6 92 55 26 107 37 104 76 -20z m440 73
c7 -17 12 -49 12 -70 0 -32 15 -38 90 -38 106 0 113 -17 28 -65 -50 -28 -60
-45 -50 -80 7 -25 18 -67 25 -95 l13 -50 -48 42 c-81 71 -95 72 -168 17 -79
-61 -82 -57 -39 47 29 68 29 76 -2 94 -119 71 -124 89 -25 89 92 1 95 3 107
71 14 75 37 90 57 38z m460 -37 c13 -66 18 -69 108 -75 l94 -6 -73 -49 -72
-49 27 -79 c37 -104 37 -104 -34 -45 -33 29 -69 52 -78 52 -9 0 -45 -23 -78
-52 -71 -59 -71 -59 -34 45 l27 79 -72 49 -73 49 94 6 c90 6 95 9 108 75 16
88 40 88 56 0z m461 -1 c12 -68 15 -70 107 -71 99 0 94 -18 -25 -89 -31 -18
-31 -26 -2 -95 36 -85 20 -94 -56 -34 -55 44 -72 40 -151 -29 l-48 -42 13 50
c7 28 18 69 25 93 8 32 -5 53 -55 90 l-67 47 89 10 c80 9 90 16 105 75 22 85
48 83 65 -5z m458 -10 c11 -55 19 -60 93 -60 63 0 125 -39 65 -40 -69 -2 -108
-74 -78 -145 38 -91 23 -106 -44 -44 -66 62 -78 61 -150 -6 l-58 -55 11 50 c6
28 17 69 24 93 11 34 1 50 -48 79 -83 49 -78 65 22 72 76 5 85 12 101 72 19
76 45 70 62 -16z m461 -25 c8 -26 32 -35 91 -35 97 0 102 -18 19 -65 -51 -29
-60 -44 -49 -80 8 -25 19 -67 25 -95 l11 -50 -58 55 c-71 66 -76 66 -142 15
-73 -58 -87 -50 -52 34 30 72 -8 143 -78 146 -60 1 2 40 65 40 70 0 81 6 92
55 26 107 37 104 76 -20z m443 35 c13 -68 16 -70 106 -71 l93 0 -70 -58 c-67
-55 -68 -60 -45 -126 35 -96 31 -108 -20 -61 -75 67 -93 70 -148 27 -76 -60
-92 -51 -57 33 26 62 27 76 4 89 -15 9 -49 33 -76 56 l-48 40 94 0 c92 1 95 3
107 71 8 39 21 70 30 70 10 0 23 -31 30 -70z m458 0 c12 -68 16 -70 102 -70
107 0 112 -18 21 -68 l-69 -36 29 -81 c15 -44 28 -84 28 -89 0 -4 -31 16 -69
45 -72 55 -88 53 -166 -17 -52 -47 -57 -27 -17 68 28 66 27 67 -45 117 l-73
51 93 6 c89 6 94 9 106 75 16 89 43 88 60 -1z m-4217 -505 c317 -1404 1863
-2016 3039 -1203 345 238 642 667 740 1068 19 77 37 151 41 165 4 15 40 25 89
25 69 0 80 -6 71 -35 -6 -19 -19 -75 -30 -125 -241 -1089 -1373 -1805 -2482
-1570 -809 172 -1474 852 -1627 1665 -17 93 138 103 159 10z m256 -88 c185
-718 893 -1257 1652 -1257 759 0 1467 539 1652 1257 28 110 45 143 72 143 49
0 46 -53 -15 -236 -503 -1505 -2560 -1679 -3298 -279 -141 266 -206 515 -135
515 27 0 44 -33 72 -143z m3058 -66 c67 -191 64 -214 -26 -236 -156 -39 -149
-46 -156 162 -9 306 87 345 182 74z m-2567 120 c36 -44 7 -111 -48 -111 -35 0
-53 -17 -69 -63 -28 -79 -28 -77 9 -77 63 0 27 -109 -38 -116 -151 -18 -169
202 -30 370 29 35 146 33 176 -3z m266 -151 c-11 -265 -36 -325 -120 -290 -19
9 -55 17 -80 18 -101 7 -94 40 73 348 53 99 133 52 127 -76z m1975 90 c17 -20
22 -64 14 -129 -9 -73 -4 -104 18 -123 64 -53 25 -107 -89 -125 -135 -21 -136
-19 -148 192 -9 149 -6 178 22 195 51 29 155 23 183 -10z m-1683 -32 c93 -32
104 -164 18 -220 -11 -8 -11 -40 2 -85 23 -86 17 -92 -102 -90 -144 3 -147 9
-106 200 48 226 61 239 188 195z m1377 -11 c7 -18 2 -49 -10 -69 -15 -23 -16
-41 -4 -48 30 -18 24 -63 -11 -99 -29 -28 -29 -31 1 -31 25 0 31 -16 26 -65
-9 -101 -184 -112 -203 -13 -25 121 -15 293 18 327 43 42 166 41 183 -2z
m-1004 -40 c24 -24 30 -52 21 -95 -7 -34 -12 -83 -12 -109 2 -124 -191 -236
-249 -144 -12 20 40 329 61 363 19 30 144 20 179 -15z m335 -15 c47 -71 11
-314 -53 -357 -138 -92 -239 138 -142 325 41 78 152 97 195 32z m358 -142 c-8
-211 -4 -205 -133 -214 l-100 -6 -6 165 c-8 219 7 244 141 239 l105 -4 -7
-180z m-1281 -371 c22 -12 120 -22 217 -23 191 -2 199 -8 142 -113 -11 -22
-21 -70 -21 -107 -1 -78 -32 -138 -55 -104 -24 36 -338 188 -356 172 -8 -8
-10 -4 -3 9 8 12 -21 46 -66 77 -108 75 -105 110 11 110 51 0 110 -10 131 -21z
m1858 -6 c0 -14 -40 -55 -90 -91 -58 -41 -91 -80 -91 -108 -2 -35 -5 -37 -15
-12 -12 29 -26 27 -119 -21 -58 -30 -99 -61 -91 -69 8 -8 0 -9 -17 -2 -18 7
-47 -2 -64 -20 -18 -18 -33 -27 -33 -19 0 8 -12 4 -28 -9 -21 -18 -30 -16 -39
9 -8 20 -5 26 10 17 16 -10 18 -5 5 14 -10 15 -19 46 -20 68 -1 22 -9 83 -17
135 -18 108 -31 102 212 95 62 -1 119 7 126 19 20 32 271 27 271 -6z m-1084
-158 c7 -60 33 -73 51 -25 17 44 108 37 132 -9 32 -58 -31 -181 -92 -181 -32
0 -46 11 -44 35 9 98 -1 117 -35 68 -73 -104 -157 11 -111 153 16 50 93 18 99
-41z m-136 -77 c0 -70 -5 -78 -50 -78 -29 0 -50 12 -50 28 0 15 -5 54 -12 86
-11 57 -9 59 50 51 57 -9 62 -16 62 -87z m460 2 c0 -72 -5 -80 -50 -80 -34 0
-50 11 -50 35 0 19 -6 55 -13 80 -10 40 -4 45 51 45 59 0 62 -4 62 -80z"/>
<path d="M2970 4318 c135 -37 136 -38 40 -29 -65 6 -117 0 -150 -19 -28 -16
-37 -29 -21 -29 21 -1 18 -9 -10 -32 -38 -30 -38 -30 5 -10 24 12 82 20 130
18 l86 -2 -94 -13 c-120 -17 -148 -42 -33 -29 174 20 194 65 32 71 -99 3 -97
4 35 15 l140 11 12 -70 12 -70 3 75 c2 61 13 80 53 95 65 25 63 30 -12 32 -42
2 -53 -3 -35 -16 29 -19 -84 -5 -203 26 -38 10 -83 17 -100 16 -16 -2 33 -20
110 -40z"/>
<path d="M2853 3846 c-7 -7 -13 -62 -13 -123 0 -128 -13 -125 -48 10 -41 160
-91 144 -96 -32 -2 -77 -4 -160 -5 -184 0 -24 10 -47 23 -52 17 -5 26 33 30
129 l6 136 31 -120 c48 -185 87 -163 99 57 9 166 3 209 -27 179z"/>
<path d="M3137 3795 c-13 -25 -25 -103 -26 -175 l-1 -130 70 0 c67 0 70 3 81
85 15 107 -33 120 -52 14 -20 -101 -61 -76 -52 32 10 125 35 179 83 179 22 0
40 9 40 20 0 42 -118 21 -143 -25z"/>
<path d="M2353 3765 c-5 -19 -15 -89 -23 -155 -7 -66 -17 -136 -23 -155 -6
-22 1 -35 20 -35 17 0 33 20 37 43 8 59 56 72 70 19 6 -23 24 -42 40 -42 18 0
25 13 18 35 -6 19 -25 100 -43 180 -31 142 -74 190 -96 110z"/>
<path d="M3520 3735 c-12 -47 -34 -128 -49 -180 -17 -62 -20 -100 -7 -108 24
-14 55 29 56 77 0 65 36 55 49 -13 12 -67 42 -106 64 -85 5 6 1 44 -11 85 -19
69 -16 80 29 121 66 62 65 143 -2 168 -87 34 -106 24 -129 -65z m120 -13 c0
-40 -53 -95 -73 -76 -6 7 -6 35 1 63 15 59 72 69 72 13z"/>
<path d="M2004 3716 c-35 -35 -30 -75 20 -170 40 -74 41 -89 17 -134 -35 -65
-21 -80 35 -40 55 38 56 87 2 193 -34 65 -38 90 -20 119 37 60 -2 84 -54 32z"/>
<path d="M3885 3568 c-36 -96 -63 -176 -60 -179 33 -26 155 -26 155 0 0 18
-17 31 -40 31 -22 0 -40 8 -40 18 0 49 29 82 72 82 29 0 48 12 48 30 0 17 -13
30 -30 30 -16 0 -30 11 -30 25 1 45 33 77 65 64 29 -11 70 23 51 42 -72 71
-127 30 -191 -143z"/>
<path d="M4273 2567 c-21 -22 -15 -307 7 -307 11 0 20 18 20 40 0 22 13 40 30
40 17 0 30 -13 30 -30 0 -16 14 -30 30 -30 37 0 39 -15 -20 148 -27 76 -50
141 -50 145 0 12 -33 8 -47 -6z"/>
<path d="M1704 2563 c-83 -54 -114 -271 -41 -294 55 -17 72 6 28 38 -61 44 15
250 82 225 19 -8 27 -2 22 13 -10 31 -57 40 -91 18z"/>
<path d="M1956 2376 c-70 -134 -85 -210 -27 -131 35 48 48 44 75 -20 l22 -55
15 80 c53 279 19 329 -85 126z"/>
<path d="M3934 2508 c-17 -18 -19 -252 -2 -296 21 -55 53 -35 44 28 -11 73 16
79 48 10 23 -50 56 -68 56 -29 0 11 -15 43 -32 70 -26 39 -28 55 -9 78 61 74
-38 205 -105 139z m76 -88 c0 -26 -11 -50 -25 -55 -16 -5 -25 13 -25 55 0 42
9 60 25 55 14 -5 25 -29 25 -55z"/>
<path d="M2291 2436 c-25 -72 -68 -265 -62 -272 18 -17 51 21 51 57 0 61 34
46 47 -21 7 -33 21 -60 33 -60 25 0 25 23 2 86 -15 38 -10 55 21 82 60 51 43
140 -28 148 -33 4 -59 -4 -64 -20z m85 -61 c-3 -24 -21 -47 -38 -51 -25 -5
-31 6 -23 45 12 64 70 70 61 6z"/>
<path d="M3665 2466 c-42 -8 -45 -19 -45 -167 0 -165 8 -178 88 -147 45 17 40
48 -8 48 -48 0 -56 70 -10 87 17 7 30 21 30 32 0 12 -13 21 -30 21 -17 0 -30
18 -30 40 0 22 13 40 30 40 17 0 30 14 30 30 0 17 -2 29 -5 27 -3 -1 -25 -6
-50 -11z"/>
<path d="M2603 2327 c-36 -176 -31 -207 27 -207 56 0 121 82 103 130 -7 17 -2
53 10 80 28 60 -5 110 -73 110 -38 0 -48 -16 -67 -113z m106 55 c18 -29 -10
-82 -43 -82 -19 0 -26 11 -18 32 7 17 12 40 12 50 0 23 34 23 49 0z m-21 -139
c14 -22 -41 -97 -58 -79 -18 17 7 96 30 96 10 0 22 -8 28 -17z"/>
<path d="M2940 2346 c-38 -127 -20 -236 39 -236 110 0 146 294 37 306 -47 6
-57 -3 -76 -70z m93 -69 c-13 -109 -38 -157 -62 -118 -26 42 10 221 44 221 25
0 28 -18 18 -103z"/>
<path d="M3273 2365 c-20 -119 -16 -269 7 -255 11 7 20 59 20 116 1 116 29 99
51 -31 25 -146 69 -92 69 85 0 171 -38 230 -42 65 l-2 -95 -29 95 c-35 114
-58 120 -74 20z"/>
</g>
</svg>
